<?xml version="1.0" standalone="no"?>
<!DOCTYPE svg PUBLIC "-//W3C//DTD SVG 20010904//EN"
 "http://www.w3.org/TR/2001/REC-SVG-20010904/DTD/svg10.dtd">
<svg version="1.0" xmlns="http://www.w3.org/2000/svg"
 width="500.000000pt" height="500.000000pt" viewBox="0 0 500.000000 500.000000"
 preserveAspectRatio="xMidYMid meet">
<metadata>
Created by potrace 1.14, written by Peter Selinger 2001-2017
</metadata>
<g transform="translate(0.000000,500.000000) scale(0.100000,-0.100000)"
fill="#000000" stroke="none">
<path d="M2271 4689 c-238 -25 -517 -106 -736 -214 -687 -337 -1148 -1000
-1225 -1764 -72 -722 238 -1463 805 -1920 447 -360 1035 -537 1596 -481 764
77 1427 538 1764 1225 413 840 243 1856 -420 2520 -466 466 -1131 702 -1784
634z m430 -99 c724 -73 1352 -507 1678 -1157 110 -221 185 -481 211 -732 78
-782 -309 -1565 -982 -1983 -389 -242 -862 -353 -1309 -308 -384 39 -758 185
-1067 417 -245 185 -467 454 -609 738 -413 825 -239 1813 433 2455 438 418
1048 630 1645 570z"/>
<path d="M2340 4494 c-14 -2 -65 -9 -115 -15 -202 -25 -462 -108 -653 -210
-563 -299 -938 -823 -1049 -1464 -24 -140 -24 -480 0 -620 85 -493 322 -912
690 -1221 283 -238 605 -386 982 -451 140 -24 480 -24 620 0 377 65 699 213
982 451 368 309 605 728 690 1221 24 140 24 480 0 620 -65 377 -213 699 -451
982 -308 367 -733 607 -1216 688 -90 15 -425 29 -480 19z m395 -949 c108 -23
220 -83 310 -167 l77 -72 -8 64 c-14 106 -9 141 21 167 36 32 98 31 130 -1 35
-35 39 -82 25 -271 -12 -160 -11 -243 6 -456 10 -120 -24 -169 -115 -169 -49
0 -87 30 -101 78 -5 20 -10 87 -10 147 0 171 -31 258 -126 352 -156 156 -438
187 -657 71 -72 -39 -181 -152 -225 -236 -96 -180 -136 -432 -113 -695 24
-262 94 -437 229 -573 281 -284 825 -176 921 184 7 23 15 92 20 154 8 108 9
112 40 140 25 23 41 28 80 28 95 0 128 -56 118 -200 -22 -310 -233 -558 -545
-641 -119 -32 -319 -37 -446 -10 -327 67 -569 318 -656 682 -65 272 -44 618
51 864 120 306 362 516 651 564 84 14 247 12 323 -4z"/>
</g>
</svg>
